<svg viewBox="0 0 512 512" xml:space="preserve" xmlns="http://www.w3.org/2000/svg" enable-background="new 0 0 512 512"><path d="M27.5 391.98c0 28.39 23.1 51.49 51.49 51.49h24.71v25.03c0 8.84 7.16 16 16 16s16-7.16 16-16v-25.03h24.7c13.74 0 26.67-5.35 36.42-15.09 9.72-9.73 15.07-22.66 15.07-36.4 0-28.39-23.1-51.49-51.49-51.49h-24.7V43.5c0-8.84-7.16-16-16-16s-16 7.16-16 16v296.99H78.99c-13.75 0-26.68 5.35-36.4 15.08-9.73 9.72-15.09 22.66-15.09 36.41zm37.71-13.79c3.68-3.68 8.57-5.7 13.78-5.7h81.41c10.75 0 19.49 8.74 19.49 19.49 0 5.21-2.03 10.1-5.7 13.78-3.69 3.68-8.59 5.71-13.79 5.71H78.99c-10.75 0-19.49-8.74-19.49-19.49 0-5.21 2.03-10.1 5.71-13.79zM348.2 148.4c0-28.39-23.1-51.49-51.49-51.49H272V43.5c0-8.84-7.16-16-16-16s-16 7.16-16 16v53.41h-24.71c-13.75 0-26.68 5.35-36.4 15.08-9.73 9.73-15.09 22.66-15.09 36.41 0 28.39 23.1 51.49 51.49 51.49H240V468.5c0 8.84 7.16 16 16 16s16-7.16 16-16V199.89h24.71c13.75 0 26.68-5.35 36.4-15.08 9.73-9.72 15.09-22.66 15.09-36.41zm-37.71 13.79c-3.68 3.68-8.57 5.7-13.78 5.7h-81.42c-10.75 0-19.49-8.74-19.49-19.49 0-5.21 2.03-10.1 5.71-13.79 3.68-3.68 8.57-5.7 13.78-5.7h81.42c10.75 0 19.49 8.74 19.49 19.49 0 5.21-2.03 10.1-5.71 13.79zM433.01 340.49H408.3V43.5c0-8.84-7.16-16-16-16s-16 7.16-16 16v296.99h-24.7c-13.75 0-26.67 5.35-36.42 15.08-9.72 9.73-15.07 22.66-15.07 36.4 0 28.39 23.1 51.49 51.49 51.49h24.7v25.03c0 8.84 7.16 16 16 16s16-7.16 16-16v-25.03h24.71c13.75 0 26.68-5.35 36.4-15.08 9.73-9.73 15.09-22.66 15.09-36.41 0-28.38-23.1-51.48-51.49-51.48zm13.78 65.28c-3.68 3.68-8.57 5.7-13.78 5.7H351.6c-10.75 0-19.49-8.74-19.49-19.49 0-5.21 2.03-10.1 5.7-13.78 3.69-3.68 8.59-5.71 13.79-5.71h81.41c10.75 0 19.49 8.74 19.49 19.49 0 5.21-2.03 10.1-5.71 13.79z" fill="#919aa1" class="fill-333333"></path></svg>